<?xml version="1.0" encoding="UTF-8" standalone="no"?>
<!DOCTYPE svg PUBLIC "-//W3C//DTD SVG 1.1//EN" "http://www.w3.org/Graphics/SVG/1.1/DTD/svg11.dtd">
<svg xmlns="http://www.w3.org/2000/svg" version="1.1" viewBox="0.00 0.00 817.00 818.00">
<path fill="#f7cc6b" d="
  M 547.86 304.91
  Q 559.98 305.07 564.77 305.67
  C 598.26 309.89 630.59 320.12 659.60 337.40
  Q 672.13 344.87 677.67 349.57
  C 686.20 356.81 689.98 370.17 686.67 381.20
  Q 683.40 392.08 681.99 398.47
  C 674.27 433.33 682.18 467.84 703.08 496.40
  Q 721.03 520.93 746.80 537.39
  C 755.00 542.64 760.91 545.61 766.47 551.95
  C 774.74 561.37 773.75 573.74 771.57 585.27
  C 766.24 613.45 755.95 640.92 740.53 665.80
  C 706.63 720.48 652.31 759.27 589.16 772.78
  Q 557.36 779.59 522.05 777.59
  C 462.96 774.25 405.91 746.74 365.44 703.55
  C 324.46 659.83 301.34 601.47 301.87 541.59
  A 0.50 0.49 89.4 0 0 301.37 541.09
  Q 251.31 541.79 204.69 523.07
  C 145.81 499.42 98.07 453.69 71.37 396.58
  C 51.59 354.29 44.22 307.07 49.82 260.81
  C 59.22 183.27 104.75 113.79 172.96 74.52
  Q 231.14 41.02 299.27 40.95
  Q 320.21 40.93 330.54 60.03
  C 331.99 62.71 332.82 67.09 332.92 70.78
  C 333.06 76.35 333.31 88.61 334.07 96.02
  C 339.25 146.78 368.44 192.76 417.96 209.95
  Q 432.34 214.93 449.21 216.52
  Q 473.12 218.77 497.01 214.15
  Q 509.77 211.69 512.33 211.78
  C 523.35 212.19 533.99 218.33 539.28 228.24
  Q 541.12 231.69 542.56 238.62
  Q 546.43 257.37 547.28 270.26
  Q 548.66 291.16 547.75 303.43
  Q 547.72 303.76 547.50 304.38
  A 0.39 0.39 0.0 0 0 547.86 304.91
  Z
  M 179.60 436.22
  C 224.06 472.52 283.20 486.90 339.02 474.10
  Q 378.62 465.01 409.90 441.56
  Q 441.76 417.66 461.42 382.96
  Q 485.39 340.68 485.90 289.00
  Q 485.95 284.47 485.24 279.95
  A 1.21 1.21 0.0 0 0 483.87 278.94
  C 473.55 280.42 462.87 280.08 451.69 279.43
  C 411.28 277.10 373.03 263.34 341.63 237.71
  C 310.23 212.08 289.08 177.36 278.70 138.24
  C 275.83 127.41 273.36 117.02 272.74 106.61
  A 1.21 1.21 0.0 0 0 271.47 105.47
  Q 266.90 105.68 262.48 106.64
  Q 211.94 117.49 175.32 149.44
  Q 145.27 175.65 128.23 211.66
  Q 111.52 247.00 110.55 287.61
  C 109.19 344.88 135.13 399.93 179.60 436.22
  Z
  M 476.10 468.15
  Q 478.34 472.26 478.92 477.04
  Q 480.75 492.10 470.49 502.97
  Q 465.64 508.10 459.24 510.21
  Q 442.97 515.55 429.30 505.56
  A 2.53 2.52 47.6 0 0 426.50 505.43
  Q 397.98 522.59 365.10 531.90
  A 1.47 1.47 0.0 0 0 364.03 533.26
  Q 361.77 584.76 387.63 629.10
  C 412.28 671.38 454.42 701.93 501.92 712.13
  Q 538.68 720.03 576.59 711.70
  Q 623.26 701.45 659.61 666.86
  Q 685.86 641.89 699.22 609.23
  Q 703.76 598.12 706.91 587.69
  A 1.67 1.66 -64.2 0 0 706.27 585.84
  Q 666.19 558.06 641.62 516.41
  C 625.71 489.43 616.95 458.17 616.87 426.09
  C 616.85 414.01 617.50 401.73 620.12 389.38
  A 2.64 2.63 20.7 0 0 618.83 386.54
  C 595.69 373.53 568.49 367.59 542.48 366.97
  Q 539.60 366.90 536.95 367.04
  A 0.83 0.82 -82.8 0 0 536.21 367.62
  Q 530.47 385.66 521.89 402.42
  Q 519.20 407.68 515.36 414.52
  Q 510.09 423.90 508.45 426.41
  Q 495.81 445.76 480.76 461.78
  Q 477.22 465.55 476.43 466.26
  A 1.56 1.55 -35.3 0 0 476.10 468.15
  Z"
/>
<ellipse fill="#f7cc6b" cx="0.00" cy="0.00" transform="translate(225.04,201.88) rotate(-3.7)" rx="31.22" ry="31.12"/>
<path fill="#f7cc6b" d="
  M 313.80 270.56
  Q 316.94 273.11 317.98 273.94
  C 324.93 279.46 328.81 288.24 329.06 296.52
  C 329.66 316.65 313.81 328.26 295.05 330.42
  Q 279.21 332.25 266.96 322.76
  C 252.87 311.84 249.86 292.47 253.41 275.71
  C 259.03 249.20 293.51 242.45 309.29 264.45
  Q 311.14 267.02 313.04 269.74
  A 3.80 3.65 -88.9 0 0 313.80 270.56
  Z"
/>
<circle fill="#f7cc6b" cx="188.17" cy="325.76" r="31.22"/>
<circle fill="#f7cc6b" cx="400.03" cy="363.10" r="31.17"/>
<path fill="#f7cc6b" d="
  M 327.77 386.50
  A 3.79 3.65 -88.8 0 0 328.53 387.33
  Q 331.66 389.88 332.70 390.71
  C 339.63 396.24 343.50 405.01 343.73 413.29
  C 344.30 433.40 328.44 444.98 309.70 447.11
  Q 293.87 448.91 281.64 439.41
  C 267.58 428.47 264.61 409.11 268.18 392.37
  C 273.84 365.89 308.30 359.21 324.03 381.21
  Q 325.88 383.78 327.77 386.50
  Z"
/>
<ellipse fill="#f7cc6b" cx="0.00" cy="0.00" transform="translate(547.39,426.99) rotate(-5.7)" rx="31.19" ry="31.14"/>
<circle fill="#f7cc6b" cx="597.02" cy="545.61" r="31.16"/>
<circle fill="#f7cc6b" cx="515.91" cy="548.71" r="31.20"/>
<ellipse fill="#f7cc6b" cx="0.00" cy="0.00" transform="translate(466.23,640.31) rotate(-1.2)" rx="31.34" ry="30.96"/>
<circle fill="#f7cc6b" cx="582.00" cy="644.75" r="31.18"/>
</svg>
